<?xml version="1.0" encoding="utf-8"?>
<!-- Svg Vector Icons : http://www.onlinewebfonts.com/icon -->
<!DOCTYPE svg PUBLIC "-//W3C//DTD SVG 1.1//EN" "http://www.w3.org/Graphics/SVG/1.1/DTD/svg11.dtd">
<svg version="1.1" xmlns="http://www.w3.org/2000/svg" xmlns:xlink="http://www.w3.org/1999/xlink" x="0px" y="0px" viewBox="0 0 256 256" enable-background="new 0 0 256 256" xml:space="preserve">
<metadata> Svg Vector Icons : http://www.onlinewebfonts.com/icon </metadata>
<g><g><g><path fill="#ffffff"  d="M168.4,241.8c-1.2,0.4-2.3,0.9-3.5,1.1c-4.5,0.8-7.4-1.5-7.5-6.2c0-8.6,0-17.2,0.1-25.8c0.1-9.9-0.1-19.7-7.6-27.8c4.5-0.8,8.5-1.4,12.4-2.3c25.8-5.9,39.2-22.2,40.9-49.2c0.9-13.8-1.6-26.4-10.7-37.2c-0.7-0.8-0.7-2.5-0.4-3.6c2.4-9,1.7-17.7-1.1-26.5c-0.7-2.2-1.9-2.9-4-2.7c-7.6,0.4-14.5,3.1-20.6,7.2c-5.9,3.9-11.4,4.8-18.4,3.2c-15.4-3.5-31-2.5-46.4,1.1c-1.7,0.4-4.1-0.1-5.7-1.1c-7.2-4.2-14.4-8.4-22.8-10c-6.5-1.3-7-0.9-8.7,5.3C62.2,75.2,62,83.1,64.2,91c0.3,1.2,0,3-0.8,3.9C46.3,113.9,52.5,150,64,163.8c9,10.7,20.9,15.5,34.1,18.1c2.3,0.4,4.6,0.7,6.9,1.2c-2,5.2-3.8,10-5.8,14.8c-0.4,0.9-1.6,1.7-2.7,2.1c-13,5-24.1,1.3-31.5-10.4c-4-6.3-9.1-11-16.6-12.3c-0.2,0-0.5-0.2-0.7-0.1c-2,0.5-4,1.1-6.1,1.6c1.2,1.6,2,3.7,3.5,4.7c6.4,4.1,10.6,9.8,13.4,16.7c4.3,10.7,12.8,15.5,23.7,16.4c5.3,0.4,10.7,0.1,16.6,0.1c0,6.6,0.2,14.3-0.1,21.8c-0.2,4.1-4.3,5.7-9.2,4c-13-4.5-25.1-10.8-35.5-19.8c-37.6-32.4-52.1-73.4-39.6-121.3c12.5-47.8,45-77.1,93.5-86.3c67.2-12.7,130.9,36.2,137.5,104.4C250.7,173.2,219.1,223.5,168.4,241.8z M105.1,182.7c0,0.1-0.1,0.2-0.1,0.3c0.1,0,0.2,0,0.4,0C105.4,183.1,105.5,183.2,105.1,182.7z M74.7,204c1,0.7,2,1.5,3.2,1.8c0.4,0.1,1.2-0.8,2.5-1.8c-1.9-0.7-3-1.3-4.2-1.5C75.8,202.4,75.2,203.5,74.7,204z M84.2,205.6c0.1,0.7,1.5,1.6,2.4,1.6c0.8,0,1.6-1.1,2.4-1.7c-0.7-0.7-1.4-1.3-3.7-3.3C84.9,203.6,84.1,204.7,84.2,205.6z M96,202.8c-1,0.2-1.8,1.2-2.7,1.8c0.5,0.7,1.1,1.3,1.9,2.3c1.2-1.1,2-1.8,2.8-2.5C97.3,203.8,96.5,202.7,96,202.8z M66.9,198.8c0.6,1,1.4,1.9,2.6,3.4c0.8-1.3,1.6-2.2,1.4-2.4c-0.7-1-1.7-1.7-2.7-2.5C68.1,197.3,66.8,198.6,66.9,198.8z"/></g><g></g><g></g><g></g><g></g><g></g><g></g><g></g><g></g><g></g><g></g><g></g><g></g><g></g><g></g><g></g></g></g>
</svg>